<?xml version="1.0" standalone="no"?>
<!DOCTYPE svg PUBLIC "-//W3C//DTD SVG 20010904//EN"
 "http://www.w3.org/TR/2001/REC-SVG-20010904/DTD/svg10.dtd">
<svg version="1.0" xmlns="http://www.w3.org/2000/svg"
 width="480.000000pt" height="480.000000pt" viewBox="0 0 480.000000 480.000000"
 preserveAspectRatio="xMidYMid meet">
<metadata>
Created by potrace 1.11, written by Peter Selinger 2001-2013
</metadata>
<g transform="translate(0.000000,480.000000) scale(0.100000,-0.100000)"
fill="#000000" stroke="none">
<path d="M2239 4796 c-2 -2 -41 -7 -86 -10 -46 -4 -93 -9 -105 -11 -12 -3 -40
-7 -63 -10 -22 -3 -101 -21 -175 -40 -399 -100 -775 -310 -1088 -609 -103 -98
-273 -309 -349 -431 -103 -167 -240 -463 -258 -557 -2 -10 -6 -22 -9 -26 -6
-10 -53 -196 -61 -237 -2 -16 -7 -39 -9 -51 -2 -12 -7 -45 -11 -74 -4 -29 -9
-62 -12 -74 -9 -38 -11 -399 -3 -479 34 -328 103 -571 245 -858 315 -637 904
-1102 1607 -1268 47 -11 108 -23 135 -27 26 -3 51 -8 54 -10 40 -24 658 -24
698 0 3 2 28 7 55 10 52 7 162 31 211 46 228 70 311 102 455 175 141 71 142
72 245 139 234 153 455 363 619 588 255 348 413 763 455 1193 9 90 7 419 -3
485 -3 19 -8 58 -12 85 -7 57 -45 233 -68 316 -71 260 -225 564 -402 799 -100
132 -299 334 -409 415 -22 17 -42 33 -45 36 -10 13 -197 137 -250 167 -222
124 -400 195 -626 251 -126 31 -159 38 -239 47 -27 3 -61 8 -75 10 -29 6 -416
15 -421 10z"/>
</g>
</svg>
